<svg width="939" height="93" viewBox="0 0 939 93" fill="none" xmlns="http://www.w3.org/2000/svg">
<path d="M0 0H13.03L43.6683 75.6372H44.7248L75.363 0H88.393V91.1206H78.1803V21.8903H77.2999L49.1268 91.1206H39.2662L11.0932 21.8903H10.2127V91.1206H0V0Z" fill="#D81F1F"/>
<path d="M136.342 92.5444C130.238 92.5444 124.882 91.0761 120.275 88.1396C115.697 85.2031 112.116 81.095 109.534 75.8152C106.981 70.5354 105.704 64.3658 105.704 57.3063C105.704 50.1875 106.981 43.9734 109.534 38.664C112.116 33.3545 115.697 29.2316 120.275 26.2951C124.882 23.3586 130.238 21.8903 136.342 21.8903C142.446 21.8903 147.788 23.3586 152.366 26.2951C156.973 29.2316 160.554 33.3545 163.107 38.664C165.689 43.9734 166.981 50.1875 166.981 57.3063C166.981 64.3658 165.689 70.5354 163.107 75.8152C160.554 81.095 156.973 85.2031 152.366 88.1396C147.788 91.0761 142.446 92.5444 136.342 92.5444ZM136.342 83.112C140.979 83.112 144.794 81.9107 147.788 79.5081C150.781 77.1055 152.997 73.9465 154.435 70.0312C155.873 66.1159 156.592 61.8742 156.592 57.3063C156.592 52.7384 155.873 48.482 154.435 44.537C152.997 40.592 150.781 37.4034 147.788 34.9711C144.794 32.5388 140.979 31.3227 136.342 31.3227C131.705 31.3227 127.89 32.5388 124.897 34.9711C121.904 37.4034 119.688 40.592 118.25 44.537C116.812 48.482 116.093 52.7384 116.093 57.3063C116.093 61.8742 116.812 66.1159 118.25 70.0312C119.688 73.9465 121.904 77.1055 124.897 79.5081C127.89 81.9107 131.705 83.112 136.342 83.112Z" fill="#D81F1F"/>
<path d="M182.839 91.1206V22.7802H192.876V33.1024H193.58C194.812 29.721 197.043 26.9773 200.271 24.8713C203.499 22.7653 207.138 21.7123 211.188 21.7123C211.951 21.7123 212.905 21.7272 214.049 21.7568C215.194 21.7865 216.06 21.831 216.647 21.8903V32.5685C216.294 32.4795 215.487 32.346 214.225 32.1681C212.993 31.9604 211.687 31.8566 210.308 31.8566C207.021 31.8566 204.086 32.5537 201.504 33.9478C198.95 35.3122 196.925 37.2106 195.429 39.6428C193.961 42.0454 193.228 44.7891 193.228 47.8739V91.1206H182.839Z" fill="#D81F1F"/>
<path d="M254.372 92.5444C248.268 92.5444 242.912 91.0761 238.305 88.1396C233.727 85.2031 230.146 81.095 227.564 75.8152C225.01 70.5354 223.734 64.3658 223.734 57.3063C223.734 50.1875 225.01 43.9734 227.564 38.664C230.146 33.3545 233.727 29.2316 238.305 26.2951C242.912 23.3586 248.268 21.8903 254.372 21.8903C260.476 21.8903 265.817 23.3586 270.396 26.2951C275.003 29.2316 278.583 33.3545 281.137 38.664C283.719 43.9734 285.01 50.1875 285.01 57.3063C285.01 64.3658 283.719 70.5354 281.137 75.8152C278.583 81.095 275.003 85.2031 270.396 88.1396C265.817 91.0761 260.476 92.5444 254.372 92.5444ZM254.372 83.112C259.009 83.112 262.824 81.9107 265.817 79.5081C268.811 77.1055 271.027 73.9465 272.465 70.0312C273.902 66.1159 274.622 61.8742 274.622 57.3063C274.622 52.7384 273.902 48.482 272.465 44.537C271.027 40.592 268.811 37.4034 265.817 34.9711C262.824 32.5388 259.009 31.3227 254.372 31.3227C249.735 31.3227 245.92 32.5388 242.927 34.9711C239.933 37.4034 237.718 40.592 236.28 44.537C234.842 48.482 234.123 52.7384 234.123 57.3063C234.123 61.8742 234.842 66.1159 236.28 70.0312C237.718 73.9465 239.933 77.1055 242.927 79.5081C245.92 81.9107 249.735 83.112 254.372 83.112Z" fill="#D81F1F"/>
<path d="M328.337 92.5444C321.999 92.5444 316.54 91.0316 311.962 88.0062C307.384 84.9807 303.862 80.8132 301.397 75.5038C298.932 70.1943 297.699 64.1285 297.699 57.3063C297.699 50.3655 298.961 44.2404 301.485 38.9309C304.038 33.5918 307.589 29.4244 312.138 26.4285C316.716 23.4031 322.057 21.8903 328.161 21.8903C332.916 21.8903 337.2 22.7802 341.015 24.5599C344.83 26.3396 347.956 28.8311 350.392 32.0346C352.827 35.2381 354.339 38.9754 354.926 43.2467H344.537C343.745 40.1322 341.984 37.3737 339.255 34.9711C336.555 32.5388 332.916 31.3227 328.337 31.3227C324.288 31.3227 320.737 32.3905 317.684 34.5262C314.662 36.6322 312.299 39.6131 310.597 43.4692C308.924 47.2955 308.088 51.7893 308.088 56.9504C308.088 62.2302 308.91 66.8277 310.553 70.7431C312.226 74.6584 314.574 77.6987 317.596 79.864C320.649 82.0293 324.229 83.112 328.337 83.112C331.037 83.112 333.488 82.6374 335.689 81.6882C337.89 80.739 339.753 79.3746 341.279 77.5949C342.805 75.8152 343.891 73.6796 344.537 71.188H354.926C354.339 75.222 352.886 78.8555 350.568 82.0887C348.279 85.2921 345.241 87.843 341.456 89.7414C337.699 91.61 333.326 92.5444 328.337 92.5444Z" fill="#D81F1F"/>
<path d="M397.582 92.5444C391.243 92.5444 385.784 91.0316 381.206 88.0062C376.628 84.9807 373.106 80.8132 370.641 75.5038C368.176 70.1943 366.943 64.1285 366.943 57.3063C366.943 50.3655 368.205 44.2404 370.729 38.9309C373.282 33.5918 376.833 29.4244 381.382 26.4285C385.96 23.4031 391.301 21.8903 397.406 21.8903C402.16 21.8903 406.444 22.7802 410.259 24.5599C414.075 26.3396 417.2 28.8311 419.636 32.0346C422.072 35.2381 423.583 38.9754 424.17 43.2467H413.781C412.989 40.1322 411.228 37.3737 408.499 34.9711C405.799 32.5388 402.16 31.3227 397.582 31.3227C393.532 31.3227 389.981 32.3905 386.929 34.5262C383.906 36.6322 381.543 39.6131 379.841 43.4692C378.169 47.2955 377.332 51.7893 377.332 56.9504C377.332 62.2302 378.154 66.8277 379.797 70.7431C381.47 74.6584 383.818 77.6987 386.841 79.864C389.893 82.0293 393.473 83.112 397.582 83.112C400.281 83.112 402.732 82.6374 404.933 81.6882C407.134 80.739 408.998 79.3746 410.524 77.5949C412.05 75.8152 413.135 73.6796 413.781 71.188H424.17C423.583 75.222 422.13 78.8555 419.812 82.0887C417.523 85.2921 414.485 87.843 410.7 89.7414C406.943 91.61 402.571 92.5444 397.582 92.5444Z" fill="#D81F1F"/>
<path d="M556.275 0V91.1206H545.358V0H556.275Z" fill="#D81F1F"/>
<path d="M587.145 50.0096V91.1206H576.756V22.7802H586.792V33.4584H587.673C589.258 29.9879 591.664 27.1997 594.892 25.0938C598.12 22.9581 602.288 21.8903 607.394 21.8903C611.972 21.8903 615.978 22.8395 619.412 24.7378C622.845 26.6065 625.516 29.454 627.423 33.2804C629.331 37.0771 630.285 41.8823 630.285 47.696V91.1206H619.896V48.4078C619.896 43.0391 618.516 38.8568 615.758 35.861C612.999 32.8355 609.214 31.3227 604.401 31.3227C601.084 31.3227 598.12 32.0494 595.508 33.5028C592.926 34.9563 590.886 37.0771 589.39 39.8653C587.893 42.6535 587.145 46.0349 587.145 50.0096Z" fill="#D81F1F"/>
<path d="M713.362 91.1206H685.541V0H714.595C723.34 0 730.824 1.82419 737.045 5.47258C743.267 9.0913 748.036 14.2969 751.352 21.0894C754.668 27.8523 756.326 35.9499 756.326 45.3823C756.326 54.8741 754.653 63.0459 751.308 69.8977C747.962 76.7199 743.091 81.97 736.693 85.648C730.295 89.2964 722.518 91.1206 713.362 91.1206ZM696.458 81.3323H712.658C720.112 81.3323 726.29 79.8789 731.19 76.972C736.091 74.0652 739.745 69.9274 742.152 64.5586C744.558 59.1898 745.761 52.7978 745.761 45.3823C745.761 38.0263 744.573 31.6935 742.196 26.384C739.818 21.0449 736.268 16.9516 731.543 14.1041C726.818 11.2269 720.934 9.78835 713.89 9.78835H696.458V81.3323Z" fill="#D81F1F"/>
<path d="M793.127 92.7224C788.843 92.7224 784.954 91.9067 781.462 90.2753C777.97 88.6142 775.196 86.2265 773.142 83.112C771.088 79.9678 770.06 76.1712 770.06 71.7219C770.06 67.8066 770.824 64.6328 772.35 62.2005C773.876 59.7386 775.915 57.8106 778.468 56.4165C781.022 55.0224 783.839 53.9842 786.92 53.302C790.031 52.5901 793.157 52.0266 796.297 51.6113C800.405 51.0774 803.736 50.677 806.289 50.41C808.872 50.1134 810.75 49.624 811.924 48.9417C813.127 48.2595 813.729 47.0731 813.729 45.3823V45.0264C813.729 40.6365 812.54 37.2254 810.163 34.7931C807.815 32.3609 804.25 31.1447 799.466 31.1447C794.507 31.1447 790.618 32.2422 787.801 34.4372C784.983 36.6322 783.003 38.9754 781.858 41.467L771.997 37.9076C773.758 33.755 776.106 30.5218 779.041 28.2082C782.005 25.865 785.233 24.2336 788.725 23.3141C792.247 22.3649 795.71 21.8903 799.114 21.8903C801.286 21.8903 803.78 22.1573 806.597 22.6912C809.444 23.1954 812.188 24.2484 814.829 25.8501C817.5 27.4519 819.716 29.8693 821.476 33.1024C823.237 36.3355 824.118 40.6661 824.118 46.0942V91.1206H813.729V81.8662H813.201C812.496 83.3493 811.322 84.9362 809.679 86.6269C808.036 88.3176 805.849 89.7562 803.12 90.9427C800.391 92.1291 797.06 92.7224 793.127 92.7224ZM794.712 83.2899C798.82 83.2899 802.284 82.4743 805.101 80.8429C807.948 79.2115 810.09 77.1055 811.528 74.5249C812.995 71.9444 813.729 69.2303 813.729 66.3828V56.7724C813.289 57.3063 812.32 57.7957 810.823 58.2407C809.356 58.6559 807.654 59.0267 805.717 59.353C803.81 59.6496 801.946 59.9166 800.126 60.1539C798.336 60.3615 796.884 60.5395 795.768 60.6878C793.069 61.0437 790.545 61.6221 788.197 62.423C785.879 63.1942 784 64.3658 782.562 65.9379C781.154 67.4803 780.449 69.5863 780.449 72.2558C780.449 75.9042 781.785 78.6627 784.455 80.5314C787.155 82.3704 790.574 83.2899 794.712 83.2899Z" fill="#D81F1F"/>
<path d="M872.485 22.7802V31.6787H837.445V22.7802H872.485ZM847.658 6.40692H858.046V71.5439C858.046 74.5101 858.472 76.7347 859.323 78.2178C860.203 79.6712 861.319 80.6501 862.669 81.1543C864.048 81.6289 865.501 81.8662 867.027 81.8662C868.171 81.8662 869.11 81.8069 869.844 81.6882C870.578 81.5399 871.164 81.4213 871.605 81.3323L873.718 90.7647C873.013 91.0316 872.03 91.2986 870.768 91.5656C869.506 91.8622 867.907 92.0105 865.97 92.0105C863.035 92.0105 860.159 91.3728 857.342 90.0973C854.554 88.8219 852.236 86.879 850.387 84.2688C848.567 81.6586 847.658 78.3661 847.658 74.3914V6.40692Z" fill="#D81F1F"/>
<path d="M908.01 92.7224C903.725 92.7224 899.836 91.9067 896.344 90.2753C892.852 88.6142 890.079 86.2265 888.024 83.112C885.97 79.9678 884.943 76.1712 884.943 71.7219C884.943 67.8066 885.706 64.6328 887.232 62.2005C888.758 59.7386 890.798 57.8106 893.351 56.4165C895.904 55.0224 898.721 53.9842 901.803 53.302C904.914 52.5901 908.039 52.0266 911.179 51.6113C915.288 51.0774 918.619 50.677 921.172 50.41C923.754 50.1134 925.632 49.624 926.806 48.9417C928.01 48.2595 928.611 47.0731 928.611 45.3823V45.0264C928.611 40.6365 927.423 37.2254 925.046 34.7931C922.698 32.3609 919.132 31.1447 914.349 31.1447C909.389 31.1447 905.5 32.2422 902.683 34.4372C899.866 36.6322 897.885 38.9754 896.74 41.467L886.88 37.9076C888.641 33.755 890.988 30.5218 893.923 28.2082C896.887 25.865 900.115 24.2336 903.607 23.3141C907.129 22.3649 910.592 21.8903 913.996 21.8903C916.168 21.8903 918.663 22.1573 921.48 22.6912C924.326 23.1954 927.07 24.2484 929.712 25.8501C932.382 27.4519 934.598 29.8693 936.359 33.1024C938.12 36.3355 939 40.6661 939 46.0942V91.1206H928.611V81.8662H928.083C927.379 83.3493 926.205 84.9362 924.561 86.6269C922.918 88.3176 920.731 89.7562 918.002 90.9427C915.273 92.1291 911.942 92.7224 908.01 92.7224ZM909.594 83.2899C913.703 83.2899 917.166 82.4743 919.983 80.8429C922.83 79.2115 924.972 77.1055 926.41 74.5249C927.878 71.9444 928.611 69.2303 928.611 66.3828V56.7724C928.171 57.3063 927.203 57.7957 925.706 58.2407C924.238 58.6559 922.536 59.0267 920.599 59.353C918.692 59.6496 916.828 59.9166 915.009 60.1539C913.219 60.3615 911.766 60.5395 910.651 60.6878C907.951 61.0437 905.427 61.6221 903.079 62.423C900.761 63.1942 898.883 64.3658 897.445 65.9379C896.036 67.4803 895.332 69.5863 895.332 72.2558C895.332 75.9042 896.667 78.6627 899.338 80.5314C902.037 82.3704 905.456 83.2899 909.594 83.2899Z" fill="#D81F1F"/>
<path d="M470.34 22.2142V32.9296C466.96 33.4679 463.736 34.8556 460.914 36.9867C458.092 39.1177 455.747 41.9358 454.057 45.2257C452.367 48.5155 451.378 52.1901 451.165 55.9687C450.951 59.7474 451.52 63.5301 452.826 67.028C454.132 70.5259 456.143 73.6465 458.703 76.1513C461.263 78.6561 464.306 80.4789 467.598 81.4805C470.891 82.4821 474.346 82.636 477.701 81.9304C481.055 81.2248 484.22 79.6784 486.953 77.4094L493.79 84.9918C488.081 90.1823 480.923 93.0129 473.539 93C455.868 93 441.543 77.1149 441.543 57.5184C441.543 39.1212 454.172 23.9918 470.34 22.2142ZM505.376 61.0665C504.756 68.0027 502.299 74.5804 498.315 79.9711L491.477 72.3923C493.725 69.0717 495.182 65.1765 495.713 61.0665H505.383H505.376ZM476.746 22.2142C484.089 23.0352 490.95 26.6447 496.169 32.4316C501.387 38.2186 504.642 45.8275 505.383 53.9702H495.713C495.021 48.6642 492.799 43.7488 489.381 39.9575C485.963 36.1662 481.53 33.7022 476.746 32.9332V22.2142Z" fill="#D81F1F"/>
</svg>
